<?xml version="1.0" standalone="no"?>
<!DOCTYPE svg PUBLIC "-//W3C//DTD SVG 20010904//EN"
 "http://www.w3.org/TR/2001/REC-SVG-20010904/DTD/svg10.dtd">
<svg version="1.0" xmlns="http://www.w3.org/2000/svg"
 width="1028.000000pt" height="1280.000000pt" viewBox="0 0 1028.000000 1280.000000"
 preserveAspectRatio="xMidYMid meet">
<metadata>
Created by potrace 1.15, written by Peter Selinger 2001-2017
</metadata>
<g transform="translate(0.000000,1280.000000) scale(0.100000,-0.100000)"
fill="#000000" stroke="none">
<path d="M9530 12589 c-124 -24 -285 -155 -459 -375 -31 -40 -42 -45 -229
-109 -1779 -610 -3108 -1363 -4037 -2290 -796 -793 -1206 -1604 -1276 -2525
-45 -595 98 -1135 411 -1552 300 -398 681 -644 1152 -744 103 -21 159 -27 340
-31 357 -9 592 35 833 155 225 112 372 257 426 419 33 100 168 824 157 846 -9
17 -116 77 -139 77 -6 0 -68 -54 -137 -120 -334 -318 -607 -432 -997 -417
-356 13 -628 135 -885 396 -245 250 -384 544 -429 911 -14 107 -14 367 -1 485
99 894 692 1757 1755 2555 573 430 1261 812 2065 1147 271 113 759 297 767
289 2 -2 -38 -68 -90 -147 -663 -1011 -1044 -1968 -1191 -2989 -76 -527 -91
-968 -60 -1780 38 -1037 42 -2037 10 -2460 -99 -1276 -426 -2168 -1006 -2750
-391 -393 -875 -623 -1488 -710 -341 -48 -699 -48 -936 1 -275 57 -522 192
-705 384 -74 78 -171 217 -171 245 0 32 264 265 476 419 402 294 521 390 655
528 160 164 238 269 314 423 83 165 126 312 150 505 19 155 19 229 0 430 -47
486 -189 830 -449 1090 -101 100 -160 145 -268 202 -283 151 -634 138 -933
-34 -220 -126 -426 -359 -564 -639 l-57 -113 -52 104 c-233 470 -554 741 -945
801 -233 35 -478 -31 -687 -186 -90 -67 -222 -206 -288 -305 -156 -234 -248
-509 -292 -874 -33 -276 -21 -499 40 -726 78 -294 247 -554 520 -801 124 -113
214 -182 453 -353 387 -276 493 -364 695 -576 241 -252 452 -557 501 -723 17
-55 18 -57 51 -57 27 0 37 6 46 25 75 161 103 215 146 282 27 43 53 78 57 78
4 0 36 -21 71 -47 504 -366 1214 -536 2025 -483 1088 71 1988 472 2730 1215
833 834 1289 1893 1376 3195 14 219 6 776 -15 1025 -30 353 -57 625 -101 1020
-119 1075 -148 1485 -149 2065 0 394 10 588 45 905 81 734 258 1339 543 1858
81 149 81 149 161 205 224 156 335 338 306 498 -17 88 -53 117 -171 137 -14 2
-45 0 -70 -4z m-7780 -7834 c302 -97 537 -318 704 -662 27 -56 56 -105 64
-108 27 -10 50 16 100 117 76 153 144 250 251 358 110 111 185 164 315 225
143 66 247 90 396 89 146 -1 259 -28 396 -95 333 -164 550 -545 584 -1025 24
-333 -39 -572 -214 -805 -75 -99 -199 -220 -318 -309 -76 -57 -287 -199 -513
-345 -93 -60 -330 -240 -354 -269 -34 -41 -39 -13 -15 102 53 262 265 478 699
712 44 24 86 50 93 58 7 9 12 44 12 84 l0 68 -57 37 c-88 57 -347 186 -445
221 -308 111 -561 89 -797 -68 -204 -137 -375 -376 -445 -625 -39 -138 -49
-239 -43 -409 6 -171 37 -316 99 -462 l35 -81 -146 147 c-199 199 -372 331
-691 530 -380 236 -565 380 -701 546 -221 271 -292 564 -238 987 29 227 122
468 242 630 122 164 258 269 444 339 101 38 169 48 318 44 119 -3 153 -8 225
-31z"/>
</g>
</svg>
